PathFileType	4	(X/Y/Z)	C3D_Data\SPM_data\ik.trc
DataRate	CameraRate	NumFrames	NumMarkers	Units	OrigDataRate	OrigDataStartFrame	OrigNumFrames
120.000000	120.000000	4	51	mm	120.000000	16	132
Frame#	Time	Sternum			Neck			RShoulder			LShoulder			Xiphoid			Thoracic			RAsis			LAsis			RPsis			LPsis			Lumbar			RElbow			RWrist			RRadius			RUlna			LElbow			LWrist			LUlna			LRadius			LThighSuperior			LThighInferior			LThighLateral			LPatella			LShankSuperior			LShankInferior			LShankLateral			RThighSuperior			RThighInferior			RThighLateral			RPatella			RShankSuperior			RShankInferior			RShankLateral			RHeel			RToe			RMidfootLateral			RHindfoot			LHeel			LToe			LMidfootMedial			LMidfootLateral			LHindfoot			LMidfootSuperior			LToeMedial			LToeLateral			Oglobal			Sacral			Xglobal			Yglobal			Zglobal			RMidfootSuperior			
		X1	Y1	Z1	X2	Y2	Z2	X3	Y3	Z3	X4	Y4	Z4	X5	Y5	Z5	X6	Y6	Z6	X7	Y7	Z7	X8	Y8	Z8	X9	Y9	Z9	X10	Y10	Z10	X11	Y11	Z11	X12	Y12	Z12	X13	Y13	Z13	X14	Y14	Z14	X15	Y15	Z15	X16	Y16	Z16	X17	Y17	Z17	X18	Y18	Z18	X19	Y19	Z19	X20	Y20	Z20	X21	Y21	Z21	X22	Y22	Z22	X23	Y23	Z23	X24	Y24	Z24	X25	Y25	Z25	X26	Y26	Z26	X27	Y27	Z27	X28	Y28	Z28	X29	Y29	Z29	X30	Y30	Z30	X31	Y31	Z31	X32	Y32	Z32	X33	Y33	Z33	X34	Y34	Z34	X35	Y35	Z35	X36	Y36	Z36	X37	Y37	Z37	X38	Y38	Z38	X39	Y39	Z39	X40	Y40	Z40	X41	Y41	Z41	X42	Y42	Z42	X43	Y43	Z43	X44	Y44	Z44	X45	Y45	Z45	X46	Y46	Z46	X47	Y47	Z47	X48	Y48	Z48	X49	Y49	Z49	X50	Y50	Z50	X51	Y51	Z51	

17	0.1333333333333334	282.9381713867188	1426.935546875	154.8674926757812	120.5352401733398	1529.374755859375	149.2454223632812	164.0879974365234	1521.766845703125	312.8939514160155	155.9304656982422	1509.424072265625	10.65623283386223	312.5239868164063	1268.798706054688	171.8201904296874	33.55897521972654	1313.540893554688	162.7584075927734	209.8343811035156	1006.319091796875	314.3614807128906	240.0273132324219	1002.416809082031	40.97988891601559	29.66392326354978	1031.689819335938	214.7002258300781	35.53403472900389	1024.604370117188	111.4284515380859	43.8392639160156	1130.459716796875	165.6216125488281	170.847671508789	1189.009399414063	432.6309814453124	365.7347106933593	998.7420654296875	448.6658020019531	385.4884643554687	1003.191528320313	400.0309753417969	333.5412902832031	966.607421875	450.8754577636719	45.53033828735352	1181.392822265625	-63.9765357971192	51.162410736084	919.7202758789063	-112.1084442138672	17.78890800476075	920.6184692382813	-79.43666076660162	93.8576126098633	906.3065795898438	-90.59972381591801	208.3338623046875	831.944580078125	-13.60638809204104	293.1712341308594	616.4097900390625	27.68585395812988	334.9813842773438	734.9157104492188	74.48365783691406	384.9395751953125	551.4761962890625	103.4736785888672	331.1092529296875	383.5311584472656	27.1247901916504	319.3751525878906	183.5868072509766	61.51311874389651	360.5360107421875	282.5331115722656	98.77979278564456	136.1950378417968	808.19140625	356.4179687499999	120.9560317993164	569.2470092773438	339.8282165527343	225.6029510498047	714.9164428710938	296.6759948730468	176.5469207763672	465.5471496582031	291.0918884277343	33.61865997314449	444.241943359375	345.6029357910156	-129.6911010742188	253.5713348388672	303.5706787109375	-3.376192092895541	313.6856079101563	269.2906494140625	-268.9606628417969	221.6114349365235	247.3689575195312	-38.8523864746094	21.45023918151857	257.9115600585938	-138.0896301269532	48.07308578491213	322.95068359375	-174.0515289306641	83.43798828125001	312.6984252929688	232.3318939208984	58.80606842041016	111.8031997680664	546.8876953125	64.43745422363281	79.8271789550782	452.7686157226563	37.47893524169923	140.0419006347657	444.4928894042969	33.38213729858398	23.83726692199712	390.1832580566406	31.36995315551758	36.39646911621099	423.7392272949219	98.74308013916016	91.32775115966803	493.9327087402344	39.75959396362305	133.0500640869141	487.511962890625	44.75289535522461	29.35203361511236	0	0	0	32.59897994995115	1028.147094726563	163.0643463134765	-200	0	-2.449293598294706e-14	-2.449293598294706e-14	1.224646799147353e-14	200	1.499759782661858e-30	200	-1.224646799147353e-14	-124.7179870605469	137.1031494140625	260.75048828125	
18	0.1416666666666667	291.841796875	1428.646118164063	153.7740631103515	129.6378326416015	1531.037841796875	148.4905242919921	173.1214599609375	1523.582153320313	311.8342895507811	165.3191986083984	1511.593139648438	9.677606582641529	321.404296875	1270.445190429688	170.6006622314453	42.66511917114256	1314.959228515625	161.7414245605468	219.0127563476562	1007.545349121094	313.3462829589843	249.3180236816406	1004.423156738281	39.42163467407223	38.91417312622067	1033.54150390625	213.7152404785156	44.87330627441405	1026.324096679688	110.1022796630859	53.16254806518553	1132.234985351563	164.6707611083984	177.6349182128906	1190.668701171875	430.8558959960937	368.7778930664062	996.4856567382813	447.454833984375	388.7433471679687	1000.439880371094	398.6890258789063	336.1894531249999	965.2562866210938	449.7158508300781	58.79132843017579	1182.507934570313	-66.83508300781256	69.02754974365236	920.6192016601563	-115.2007369995118	35.33263015747071	921.1779174804688	-83.1830673217774	111.6177978515625	908.1791381835938	-93.41459655761723	216.560791015625	832.7963256835938	-14.07331085205081	298.1327209472656	616.3847045898438	27.61893081665039	342.1779479980469	734.31640625	73.05673217773438	389.7080688476563	550.6135864257813	104.2649841308594	333.1665954589844	383.5476684570313	28.02955436706544	320.7794189453125	183.1085815429688	61.8952445983887	362.2475891113281	281.4707946777344	98.49035644531253	149.5635528564453	808.5234985351563	355.9643554687499	139.7602386474609	569.3134155273438	340.7914123535156	240.3513793945312	717.1776733398438	296.0834350585938	196.0130310058593	466.2204895019531	291.8070373535156	52.531566619873	446.6514587402344	347.0754699707031	-114.9283142089844	260.4190979003906	304.7068786621094	13.0629959106445	316.4418029785156	270.6765441894531	-251.9759216308594	236.1473693847657	248.9784851074218	-36.85878753662112	18.62805366516115	258.4997863769531	-133.9393463134766	54.49446105957033	323.5723876953125	-166.8060607910157	91.83540344238283	313.5301208496094	232.4068908691406	58.81638336181641	111.8592071533203	547.1251220703125	64.02317810058594	79.88808441162116	452.7318725585938	37.32880401611329	140.2543945312501	444.3827209472656	33.42222213745117	23.79203033447271	390.4656372070313	31.20930480957032	36.69953918457036	424.0575256347656	98.36981964111328	91.76719665527349	494.0995483398438	39.5001335144043	133.1122283935547	487.6344299316406	44.65739822387695	29.42498207092291	0	0	0	41.89373779296873	1029.932739257813	161.9087524414062	-200	0	-2.449293598294706e-14	-2.449293598294706e-14	1.224646799147353e-14	200	1.499759782661858e-30	200	-1.224646799147353e-14	-118.4202499389649	146.1703186035157	261.6632690429688	
19	0.15	300.6083068847656	1430.305297851563	152.9569549560546	138.4118957519531	1532.686157226563	147.786880493164	181.9271392822265	1525.239624023438	310.8793029785155	174.6155853271484	1513.595458984375	8.952956199645925	330.1211242675781	1272.027221679688	169.2713623046874	51.68910598754881	1316.487060546875	160.7929382324218	227.9597930908203	1008.813049316406	312.5018310546874	258.5784301757813	1006.1630859375	38.17865753173825	48.002571105957	1035.318237304688	212.7495117187499	54.10319900512694	1027.837036132813	108.8385467529296	62.35547256469724	1133.871215820313	163.6783447265624	184.2783813476562	1192.1689453125	429.2562561035156	371.6568298339843	994.1800537109375	446.3529663085938	391.5019531249999	997.586669921875	397.5568542480469	338.3721618652343	963.7675170898438	448.8690795898438	71.93672180175783	1183.484008789063	-69.61146545410162	86.98298645019533	922.3812255859375	-119.2564010620118	53.15885162353517	921.7857666015625	-87.08307647705084	129.8267974853516	909.9566650390625	-96.49829101562504	224.2302093505859	833.8693237304688	-14.70617485046389	303.2453918457031	616.4130859375	27.59536552429199	348.9665832519531	733.877685546875	72.10479736328125	393.6566467285156	549.6910400390625	104.5533218383789	335.6092834472656	382.9907836914063	28.27888679504396	321.5866394042969	183.2923431396484	61.89244079589847	364.2235107421875	281.1797180175781	98.80796051025393	163.0492858886718	808.9683227539063	355.5020751953124	158.5625457763672	569.6780395507813	341.3766784667968	254.9397583007812	719.5429077148438	295.4071350097656	215.5978698730468	467.0314636230469	292.1332092285156	71.6454696655273	449.1372375488281	348.5089416503906	-99.52995300292973	267.1427307128906	305.6867980957031	29.65446853637692	319.8539428710938	271.5260009765625	-234.01318359375	250.7229614257813	249.0624084472656	-36.72980499267581	13.79411602020265	258.0461730957031	-126.9238586425782	61.3006286621094	324.2063598632813	-158.0697631835938	101.1606750488281	313.9844665527344	232.4373779296875	58.79983520507813	111.8347854614258	547.3195190429688	63.66069030761719	79.8815994262696	452.9302978515625	37.0163803100586	140.1426391601563	444.4268188476563	33.40203094482422	23.73997116088872	390.4704284667969	31.14811325073243	36.67518234252935	424.0910339355469	98.15404510498047	91.92615509033209	494.2447204589844	39.10446166992188	133.0413665771485	487.7867431640625	44.55573654174805	29.36870574951178	0	0	0	51.0528869628906	1031.57763671875	160.7940368652343	-200	0	-2.449293598294706e-14	-2.449293598294706e-14	1.224646799147353e-14	200	1.499759782661858e-30	200	-1.224646799147353e-14	-110.6316909790039	156.1653137207032	262.1987609863281	
20	0.1583333333333334	309.3376159667969	1431.9033203125	152.004409790039	147.0179290771484	1534.217651367188	147.1924896240234	190.4222717285156	1526.756225585938	310.0354003906249	183.5746154785156	1515.631225585938	8.182236671447685	338.9079895019531	1273.679931640625	168.2406463623046	60.65035247802732	1317.854614257813	159.9504394531249	236.9063110351562	1009.6806640625	311.4680786132813	267.6758422851563	1008.11083984375	36.93078613281247	57.05939865112302	1037.011840820313	211.7413177490234	63.18222427368163	1029.3408203125	107.6660766601562	71.47207641601561	1135.452758789063	162.9618530273437	190.8990631103515	1193.52490234375	427.6281127929687	374.2768249511718	991.9119262695313	445.3714294433594	394.2447509765624	994.6425170898438	396.3081359863281	340.5043029785156	962.3386840820313	447.7435607910156	85.03533935546876	1184.33251953125	-72.48935699462896	105.6659774780274	923.2406005859375	-122.5818252563477	71.09262084960939	922.388916015625	-91.12416839599614	148.0985107421875	911.975830078125	-99.62834930419926	232.0465850830078	835.2015380859375	-16.00956916809084	308.20947265625	616.6063232421875	27.38961410522461	355.5077819824219	733.4452514648438	71.28946685791016	397.8126220703125	548.8289794921875	104.4280624389649	338.2000122070313	382.5338439941406	28.33008003234865	323.0223388671875	183.1122894287109	62.08802795410159	365.7939758300781	280.85693359375	98.60186004638675	176.6791381835937	809.3372802734375	355.1364440917968	177.0072937011718	570.1812133789063	342.0758666992187	269.3291931152343	722.0260620117188	294.6551818847656	234.5844573974609	468.0307006835938	291.8368530273438	90.58917999267574	451.864990234375	349.90380859375	-83.7168350219727	273.6237487792969	306.626708984375	45.48575592041012	324.0643615722656	271.8121032714844	-216.77392578125	263.1492614746094	250.2898254394531	-34.44969558715823	9.365963935852067	257.5908813476563	-117.869010925293	67.79418182373048	323.2129211425781	-148.0213012695313	110.2145919799805	314.6722717285156	232.455810546875	58.72282791137696	111.8134765625	547.3736572265625	63.32919311523438	79.8157043457032	452.9595642089844	36.74771881103516	140.1626129150391	444.3954162597656	33.32938766479492	23.61233520507817	390.3139038085938	31.28845405578614	36.44139862060552	424.047119140625	98.00678253173828	91.95642089843756	494.3118591308594	38.78770828247071	132.9952392578126	487.7569580078125	44.39625549316406	29.33705711364752	0	0	0	60.12081146240232	1033.176391601563	159.7036895751953	-200	0	-2.449293598294706e-14	-2.449293598294706e-14	1.224646799147353e-14	200	1.499759782661858e-30	200	-1.224646799147353e-14	-101.5309524536133	165.8889617919922	262.9677734375	
